<svg width="50" height="41" viewBox="0 0 50 41" fill="none" xmlns="http://www.w3.org/2000/svg">
<path d="M15.7061 40.6559C34.5735 40.6559 44.8975 25.0098 44.8975 11.4645C44.8975 11.0243 44.8975 10.5841 44.8775 10.144C46.8783 8.7034 48.619 6.88269 49.9995 4.82188C48.1588 5.6422 46.178 6.18242 44.0972 6.44252C46.2181 5.18203 47.8387 3.16123 48.619 0.760296C46.6382 1.94076 44.4374 2.78109 42.0964 3.24127C40.2157 1.24048 37.5547 0 34.6135 0C28.9513 0 24.3495 4.6018 24.3495 10.264C24.3495 11.0643 24.4496 11.8446 24.6096 12.6049C16.0863 12.1848 8.52333 8.08316 3.46135 1.88074C2.58101 3.40133 2.08081 5.16202 2.08081 7.04275C2.08081 10.6041 3.90152 13.7454 6.6426 15.5861C4.96194 15.5261 3.38132 15.0659 2.00078 14.3056C2.00078 14.3456 2.00078 14.3856 2.00078 14.4456C2.00078 19.4076 5.54216 23.5692 10.224 24.5096C9.36366 24.7497 8.46331 24.8697 7.52294 24.8697C6.86268 24.8697 6.22243 24.8097 5.60219 24.6896C6.9027 28.7712 10.7042 31.7324 15.1859 31.8124C11.6646 34.5735 7.24283 36.2141 2.44095 36.2141C1.62063 36.2141 0.800313 36.1741 0 36.0741C4.52177 38.9552 9.92388 40.6559 15.7061 40.6559Z" fill="white"/>
</svg>
