<svg width="34" height="34" viewBox="0 0 34 34" fill="none" xmlns="http://www.w3.org/2000/svg">
<g clip-path="url(#clip0_192_4052)">
<path d="M18.0621 9.56267V24.4376" stroke="white" stroke-width="2.25" stroke-linecap="round" stroke-linejoin="round"/>
<path d="M30.2812 9.56267H23.9062V24.4376" stroke="white" stroke-width="2.25" stroke-linecap="round" stroke-linejoin="round"/>
<path d="M28.6874 16.9998H23.9062" stroke="white" stroke-width="2.25" stroke-linecap="round" stroke-linejoin="round"/>
<path d="M9.56168 17.5314H12.7492V20.1876C12.7492 21.3148 12.3014 22.3958 11.5044 23.1928C10.7074 23.9899 9.62635 24.4376 8.49918 24.4376C7.37202 24.4376 6.29102 23.9899 5.49399 23.1928C4.69696 22.3958 4.2492 21.3148 4.2492 20.1876V13.8127C4.24934 12.7782 4.62673 11.7793 5.31064 11.0031C5.99455 10.227 6.93803 9.72688 7.96426 9.59655C8.99049 9.46622 10.029 9.7146 10.8852 10.2952C11.7414 10.8757 12.3566 11.7486 12.6153 12.7502" stroke="white" stroke-width="2.25" stroke-linecap="round" stroke-linejoin="round"/>
</g>
<defs>
<clipPath id="clip0_192_4052">
<rect width="33.6" height="33.6" fill="white" transform="scale(1.0119)"/>
</clipPath>
</defs>
</svg>
