<svg width="350" height="1080" viewBox="0 0 350 1080" fill="none" xmlns="http://www.w3.org/2000/svg">
<mask id="path-1-inside-1_102_28802" fill="white">
<path d="M0 0H350V1080H0V0Z"/>
</mask>
<path d="M0 0H350V1080H0V0Z" fill="#FAFCFF"/>
<path d="M349 0V1080H351V0H349Z" fill="#D6DAE2" mask="url(#path-1-inside-1_102_28802)"/>
<path d="M143.819 34.7812C147.745 34.7812 150.938 37.8922 150.938 41.717C150.938 45.5418 147.745 48.6528 143.819 48.6528H138.937V34.7812H143.819ZM143.819 30.8105H137.101C135.878 30.8105 134.861 31.7981 134.861 32.9929V50.4436C134.861 51.6358 135.875 52.6259 137.101 52.6259H143.819C150.011 52.6259 155.014 47.7522 155.014 41.7195C155.014 35.6868 150.011 30.8105 143.819 30.8105Z" fill="black"/>
<path d="M174.67 50.6431C174.67 51.7278 173.748 52.6258 172.635 52.6258C171.521 52.6258 170.6 51.7278 170.6 50.6431V44.6948C170.6 42.4946 168.788 40.7293 166.529 40.7293C164.271 40.7293 162.459 42.4946 162.459 44.6948V50.6431C162.459 51.7278 161.537 52.6258 160.424 52.6258C159.31 52.6258 158.389 51.7278 158.389 50.6431V32.7957C158.389 31.711 159.31 30.813 160.424 30.813C161.537 30.813 162.459 31.711 162.459 32.7957V37.846C163.636 37.1655 165.035 36.7612 166.529 36.7612C171.012 36.7612 174.67 40.3251 174.67 44.6922V50.6431Z" fill="black"/>
<path d="M182.686 50.6429C182.686 51.7277 181.764 52.6257 180.65 52.6257C179.537 52.6257 178.615 51.7277 178.615 50.6429V38.7464C178.615 37.6617 179.537 36.7637 180.65 36.7637C181.764 36.7637 182.686 37.6617 182.686 38.7464V50.6429Z" fill="black"/>
<path d="M209.526 50.6431C209.526 51.7278 208.604 52.6258 207.49 52.6258C206.95 52.6258 206.44 52.4083 206.059 52.0374L198.331 44.508L190.605 52.0374C190.224 52.4083 189.715 52.6258 189.174 52.6258C188.06 52.6258 187.139 51.7278 187.139 50.6431V32.7957C187.139 31.711 188.06 30.813 189.174 30.813C190.287 30.813 191.209 31.711 191.209 32.7957V45.8717L196.902 40.3251C197.283 39.9234 197.824 39.7366 198.333 39.7366C198.843 39.7366 199.384 39.9234 199.765 40.3251L205.458 45.8717V32.7957C205.458 31.711 206.38 30.813 207.493 30.813C208.607 30.813 209.528 31.711 209.528 32.7957V50.6431H209.526Z" fill="black"/>
<path d="M218.049 50.6429C218.049 51.7277 217.127 52.6257 216.014 52.6257C214.9 52.6257 213.979 51.7277 213.979 50.6429V38.7464C213.979 37.6617 214.9 36.7637 216.014 36.7637C217.127 36.7637 218.049 37.6617 218.049 38.7464V50.6429Z" fill="black"/>
<path d="M231.154 48.6604C231.726 48.6604 232.17 48.228 232.17 47.6678C232.17 47.1075 231.726 46.6751 231.154 46.6751H227.083C224.284 46.6751 221.994 44.4442 221.994 41.7169C221.994 38.9897 224.284 36.7588 227.083 36.7588H233.189C234.302 36.7588 235.224 37.6568 235.224 38.7415C235.224 39.8263 234.302 40.7243 233.189 40.7243H227.083C226.511 40.7243 226.064 41.1567 226.064 41.7169C226.064 42.2772 226.508 42.7096 227.083 42.7096H231.154C233.953 42.7096 236.24 44.9405 236.24 47.6678C236.24 50.395 233.95 52.6259 231.154 52.6259H224.029C222.916 52.6259 221.994 51.7279 221.994 50.6432C221.994 49.5584 222.916 48.6604 224.029 48.6604H231.154Z" fill="black"/>
<path d="M247.309 52.6257C242.823 52.6257 239.168 49.0618 239.168 44.6947C239.168 40.3275 242.823 36.7637 247.309 36.7637C251.791 36.7637 255.449 40.3275 255.449 44.6947C255.449 45.7794 254.528 46.6774 253.414 46.6774H243.777C244.478 47.885 245.78 48.6602 247.306 48.6602H249.341C250.455 48.6602 251.376 49.5582 251.376 50.6429C251.376 51.7277 250.455 52.6257 249.341 52.6257H247.309ZM243.777 42.7094H250.835C250.137 41.5325 248.8 40.7266 247.306 40.7266C245.78 40.7266 244.478 41.5325 243.777 42.7094Z" fill="black"/>
<path d="M180.649 35.2748C181.914 35.2748 182.939 34.276 182.939 33.0439C182.939 31.8118 181.914 30.813 180.649 30.813C179.385 30.813 178.359 31.8118 178.359 33.0439C178.359 34.276 179.385 35.2748 180.649 35.2748Z" fill="url(#paint0_linear_102_28802)"/>
<path d="M216.015 35.2748C217.279 35.2748 218.304 34.276 218.304 33.0439C218.304 31.8118 217.279 30.813 216.015 30.813C214.75 30.813 213.725 31.8118 213.725 33.0439C213.725 34.276 214.75 35.2748 216.015 35.2748Z" fill="url(#paint1_linear_102_28802)"/>
<path d="M118.247 24H95.2193C93.9299 24 92.8848 25.0182 92.8848 26.2744V51.0601C92.8848 51.9811 93.4546 52.81 94.3265 53.1605C95.1957 53.511 96.2015 53.3166 96.8711 52.6667L108.113 41.7143C109.024 40.8265 109.024 39.3862 108.113 38.4984C107.202 37.6106 105.723 37.6106 104.812 38.4984L97.5539 45.5698V28.5488H118.25C121.745 28.5488 124.586 31.3196 124.586 34.7222V48.7089C124.586 52.1141 121.742 54.8823 118.25 54.8823H107.115L114.374 47.8109C115.285 46.9232 115.285 45.4828 114.374 44.595C113.462 43.7073 111.984 43.7073 111.073 44.595L99.828 55.5501C99.161 56.1999 98.9614 57.1797 99.3212 58.0291C99.6836 58.8785 100.534 59.4337 101.477 59.4337H118.244C124.313 59.4337 129.25 54.6239 129.25 48.7115V34.7248C129.255 28.8123 124.318 24 118.247 24Z" fill="url(#paint2_linear_102_28802)"/>
<path d="M118.15 43.1929C119.439 43.1929 120.484 42.1747 120.484 40.9185V34.8193C120.484 33.5632 119.439 32.5449 118.15 32.5449H111.889C110.6 32.5449 109.555 33.5632 109.555 34.8193C109.555 36.0755 110.6 37.0937 111.889 37.0937H115.815V40.9185C115.815 42.1747 116.86 43.1929 118.15 43.1929Z" fill="url(#paint3_linear_102_28802)"/>
<defs>
<linearGradient id="paint0_linear_102_28802" x1="178.36" y1="33.043" x2="182.939" y2="33.043" gradientUnits="userSpaceOnUse">
<stop stop-color="#0068FF"/>
<stop offset="1" stop-color="#0000E1"/>
</linearGradient>
<linearGradient id="paint1_linear_102_28802" x1="213.725" y1="33.043" x2="218.304" y2="33.043" gradientUnits="userSpaceOnUse">
<stop stop-color="#FF9852"/>
<stop offset="0.2774" stop-color="#FF8A3A"/>
<stop offset="1" stop-color="#FF6700"/>
</linearGradient>
<linearGradient id="paint2_linear_102_28802" x1="115.664" y1="34.7646" x2="96.624" y2="54.3076" gradientUnits="userSpaceOnUse">
<stop stop-color="#0068FF"/>
<stop offset="1" stop-color="#0000E1"/>
</linearGradient>
<linearGradient id="paint3_linear_102_28802" x1="120.276" y1="32.7488" x2="113.33" y2="39.8787" gradientUnits="userSpaceOnUse">
<stop stop-color="#FF9852"/>
<stop offset="0.2774" stop-color="#FF8A3A"/>
<stop offset="1" stop-color="#FF6700"/>
</linearGradient>
</defs>
</svg>
