<svg width="16" height="16" viewBox="0 0 16 16" fill="none" xmlns="http://www.w3.org/2000/svg">
<path d="M8.28732 2.73315C8.17905 2.68631 8.0603 2.66904 7.94318 2.68309C7.82606 2.69715 7.71476 2.74203 7.62065 2.81315L4.43398 5.33315H2.00065C1.82384 5.33315 1.65427 5.40339 1.52925 5.52841C1.40422 5.65344 1.33398 5.82301 1.33398 5.99982V9.99982C1.33398 10.1766 1.40422 10.3462 1.52925 10.4712C1.65427 10.5962 1.82384 10.6665 2.00065 10.6665H4.43398L7.58732 13.1865C7.70461 13.2806 7.85028 13.3323 8.00065 13.3332C8.10023 13.3348 8.19868 13.3119 8.28732 13.2665C8.40077 13.2125 8.49663 13.1275 8.56387 13.0213C8.6311 12.9151 8.66696 12.7921 8.66732 12.6665V3.33315C8.66696 3.20749 8.6311 3.0845 8.56387 2.97834C8.49663 2.87218 8.40077 2.78718 8.28732 2.73315ZM7.33398 11.2798L5.08065 9.47982C4.96336 9.38571 4.81769 9.33402 4.66732 9.33315H2.66732V6.66648H4.66732C4.81769 6.66561 4.96336 6.61392 5.08065 6.51982L7.33398 4.71982V11.2798ZM13.274 7.99982L14.474 6.80648C14.5361 6.74433 14.5855 6.67053 14.6191 6.58932C14.6527 6.5081 14.67 6.42106 14.67 6.33315C14.67 6.24524 14.6527 6.1582 14.6191 6.07698C14.5855 5.99577 14.5361 5.92198 14.474 5.85982C14.4118 5.79766 14.338 5.74835 14.2568 5.71471C14.1756 5.68107 14.0886 5.66376 14.0007 5.66376C13.9127 5.66376 13.8257 5.68107 13.7445 5.71471C13.6633 5.74835 13.5895 5.79766 13.5273 5.85982L12.334 7.05982L11.1407 5.85982C11.0151 5.73428 10.8449 5.66376 10.6673 5.66376C10.4898 5.66376 10.3195 5.73428 10.194 5.85982C10.0684 5.98535 9.99792 6.15562 9.99792 6.33315C9.99792 6.51069 10.0684 6.68095 10.194 6.80648L11.394 7.99982L10.194 9.19315C10.1315 9.25513 10.0819 9.32886 10.0481 9.4101C10.0142 9.49134 9.99679 9.57848 9.99679 9.66648C9.99679 9.75449 10.0142 9.84163 10.0481 9.92287C10.0819 10.0041 10.1315 10.0778 10.194 10.1398C10.256 10.2023 10.3297 10.2519 10.4109 10.2857C10.4922 10.3196 10.5793 10.337 10.6673 10.337C10.7553 10.337 10.8425 10.3196 10.9237 10.2857C11.0049 10.2519 11.0787 10.2023 11.1407 10.1398L12.334 8.93982L13.5273 10.1398C13.5893 10.2023 13.663 10.2519 13.7443 10.2857C13.8255 10.3196 13.9126 10.337 14.0007 10.337C14.0887 10.337 14.1758 10.3196 14.257 10.2857C14.3383 10.2519 14.412 10.2023 14.474 10.1398C14.5365 10.0778 14.5861 10.0041 14.6199 9.92287C14.6538 9.84163 14.6712 9.75449 14.6712 9.66648C14.6712 9.57848 14.6538 9.49134 14.6199 9.4101C14.5861 9.32886 14.5365 9.25513 14.474 9.19315L13.274 7.99982Z" fill="#75839D"/>
</svg>
