<svg width="20" height="20" viewBox="0 0 20 20" fill="none" xmlns="http://www.w3.org/2000/svg">
<path d="M16.9507 7.76661L5.28403 1.93328C4.8236 1.70412 4.30371 1.62254 3.79522 1.69965C3.28674 1.77677 2.81441 2.00884 2.44264 2.36421C2.07086 2.71958 1.81774 3.18096 1.71777 3.68545C1.61781 4.18994 1.67586 4.71299 1.88403 5.18328L3.88403 9.65828C3.92941 9.76647 3.95278 9.88262 3.95278 9.99994C3.95278 10.1173 3.92941 10.2334 3.88403 10.3416L1.88403 14.8166C1.71461 15.1972 1.64299 15.6141 1.67568 16.0294C1.70836 16.4447 1.84431 16.8453 2.07118 17.1947C2.29805 17.5441 2.60863 17.8313 2.97471 18.0301C3.34079 18.229 3.75076 18.3332 4.16736 18.3333C4.55755 18.3294 4.94194 18.2383 5.29236 18.0666L16.959 12.2333C17.3729 12.0251 17.7207 11.706 17.9638 11.3117C18.2068 10.9173 18.3355 10.4632 18.3355 9.99994C18.3355 9.5367 18.2068 9.08257 17.9638 8.68821C17.7207 8.29386 17.3729 7.97479 16.959 7.76661H16.9507ZM16.209 10.7416L4.54236 16.5749C4.38916 16.6485 4.21714 16.6735 4.04935 16.6465C3.88156 16.6195 3.72603 16.5419 3.60362 16.424C3.48121 16.3061 3.39776 16.1536 3.36447 15.987C3.33118 15.8203 3.34963 15.6475 3.41736 15.4916L5.40903 11.0166C5.43481 10.9569 5.45707 10.8956 5.47569 10.8333H11.2174C11.4384 10.8333 11.6503 10.7455 11.8066 10.5892C11.9629 10.4329 12.0507 10.221 12.0507 9.99994C12.0507 9.77893 11.9629 9.56697 11.8066 9.41069C11.6503 9.25441 11.4384 9.16661 11.2174 9.16661H5.47569C5.45707 9.10425 5.43481 9.04303 5.40903 8.98328L3.41736 4.50828C3.34963 4.35241 3.33118 4.17957 3.36447 4.01292C3.39776 3.84627 3.48121 3.69378 3.60362 3.5759C3.72603 3.45802 3.88156 3.38039 4.04935 3.3534C4.21714 3.32642 4.38916 3.35139 4.54236 3.42494L16.209 9.25828C16.3455 9.32821 16.4601 9.43446 16.5401 9.56532C16.6201 9.69617 16.6624 9.84657 16.6624 9.99994C16.6624 10.1533 16.6201 10.3037 16.5401 10.4346C16.4601 10.5654 16.3455 10.6717 16.209 10.7416Z" fill="#0061FF"/>
</svg>
