<svg width="20" height="20" viewBox="0 0 20 20" fill="none" xmlns="http://www.w3.org/2000/svg">
<path d="M11.966 11.8584C11.409 12.3076 10.7149 12.5525 9.99935 12.5525C9.28377 12.5525 8.58975 12.3076 8.03269 11.8584C7.86251 11.717 7.6431 11.6489 7.42275 11.6692C7.20239 11.6895 6.99914 11.7966 6.85769 11.9667C6.71624 12.1369 6.64819 12.3563 6.6685 12.5767C6.68882 12.797 6.79584 13.0003 6.96602 13.1417C7.81713 13.8523 8.89065 14.2414 9.99935 14.2414C11.1081 14.2414 12.1816 13.8523 13.0327 13.1417C13.2029 13.0003 13.3099 12.797 13.3302 12.5767C13.3505 12.3563 13.2825 12.1369 13.141 11.9667C13.071 11.8825 12.985 11.8128 12.8881 11.7618C12.7911 11.7107 12.6851 11.6793 12.576 11.6692C12.3556 11.6489 12.1362 11.717 11.966 11.8584ZM7.49935 9.16675C7.66417 9.16675 7.82529 9.11787 7.96233 9.02631C8.09937 8.93474 8.20618 8.80459 8.26925 8.65232C8.33232 8.50005 8.34883 8.33249 8.31667 8.17084C8.28452 8.00919 8.20515 7.8607 8.08861 7.74416C7.97206 7.62762 7.82358 7.54825 7.66193 7.51609C7.50028 7.48394 7.33272 7.50044 7.18045 7.56352C7.02818 7.62659 6.89803 7.7334 6.80646 7.87044C6.71489 8.00748 6.66602 8.1686 6.66602 8.33342C6.66602 8.55443 6.75382 8.76639 6.9101 8.92267C7.06638 9.07895 7.27834 9.16675 7.49935 9.16675ZM12.4994 7.50008C12.3345 7.50008 12.1734 7.54896 12.0364 7.64052C11.8993 7.73209 11.7925 7.86224 11.7295 8.01451C11.6664 8.16678 11.6499 8.33434 11.682 8.49599C11.7142 8.65764 11.7936 8.80613 11.9101 8.92267C12.0266 9.03921 12.1751 9.11858 12.3368 9.15074C12.4984 9.18289 12.666 9.16639 12.8183 9.10331C12.9705 9.04024 13.1007 8.93343 13.1922 8.79639C13.2838 8.65935 13.3327 8.49823 13.3327 8.33342C13.3327 8.1124 13.2449 7.90044 13.0886 7.74416C12.9323 7.58788 12.7204 7.50008 12.4994 7.50008ZM9.99935 1.66675C8.35118 1.66675 6.74001 2.15549 5.3696 3.07117C3.99919 3.98685 2.93109 5.28834 2.30036 6.81105C1.66963 8.33377 1.5046 10.0093 1.82614 11.6258C2.14769 13.2423 2.94136 14.7272 4.1068 15.8926C5.27223 17.0581 6.75709 17.8517 8.3736 18.1733C9.99011 18.4948 11.6657 18.3298 13.1884 17.6991C14.7111 17.0683 16.0126 16.0002 16.9283 14.6298C17.8439 13.2594 18.3327 11.6483 18.3327 10.0001C18.3327 8.90573 18.1171 7.8221 17.6983 6.81105C17.2796 5.80001 16.6657 4.88135 15.8919 4.10752C15.1181 3.3337 14.1994 2.71987 13.1884 2.30109C12.1773 1.8823 11.0937 1.66675 9.99935 1.66675ZM9.99935 16.6667C8.68081 16.6667 7.39188 16.2758 6.29555 15.5432C5.19922 14.8107 4.34474 13.7695 3.84016 12.5513C3.33557 11.3331 3.20355 9.99269 3.46078 8.69948C3.71802 7.40627 4.35296 6.21839 5.28531 5.28604C6.21766 4.35369 7.40554 3.71875 8.69875 3.46151C9.99196 3.20428 11.3324 3.3363 12.5506 3.84088C13.7687 4.34547 14.8099 5.19995 15.5425 6.29628C16.275 7.39261 16.666 8.68154 16.666 10.0001C16.666 11.7682 15.9636 13.4639 14.7134 14.7141C13.4632 15.9644 11.7675 16.6667 9.99935 16.6667Z" fill="#75839D"/>
</svg>
