<svg width="80" height="80" viewBox="0 0 80 80" fill="none" xmlns="http://www.w3.org/2000/svg">
<path d="M80 40.0001C80 17.9087 62.0914 9.15527e-05 40 9.15527e-05C17.9086 9.15527e-05 0 17.9087 0 40.0001C0 59.9652 14.6274 76.5134 33.75 79.5142V51.5626H23.5938V40.0001H33.75V31.1876C33.75 21.1626 39.7217 15.6251 48.8586 15.6251C53.2349 15.6251 57.8125 16.4063 57.8125 16.4063V26.2501H52.7686C47.7996 26.2501 46.25 29.3335 46.25 32.4967V40.0001H57.3438L55.5703 51.5626H46.25V79.5142C65.3726 76.5134 80 59.9652 80 40.0001Z" fill="#1877F2"/>
<path d="M55.5703 51.5625L57.3438 40H46.25V32.4966C46.25 29.3334 47.7996 26.25 52.7686 26.25H57.8125V16.4062C57.8125 16.4062 53.2349 15.625 48.8586 15.625C39.7217 15.625 33.75 21.1625 33.75 31.1875V40H23.5938V51.5625H33.75V79.5141C35.7865 79.8336 37.8738 80 40 80C42.1263 80 44.2135 79.8336 46.25 79.5141V51.5625H55.5703Z" fill="white"/>
</svg>
