<svg width="32" height="32" viewBox="0 0 32 32" fill="none" xmlns="http://www.w3.org/2000/svg">
<path d="M24.9479 9.61339C24.8239 9.48842 24.6765 9.38923 24.514 9.32154C24.3515 9.25384 24.1773 9.21899 24.0012 9.21899C23.8252 9.21899 23.6509 9.25384 23.4885 9.32154C23.326 9.38923 23.1785 9.48842 23.0546 9.61339L13.1212 19.5601L8.9479 15.3734C8.81921 15.2491 8.66728 15.1513 8.50081 15.0857C8.33434 15.0201 8.15657 14.9879 7.97766 14.991C7.79876 14.9941 7.62221 15.0324 7.45811 15.1038C7.294 15.1751 7.14555 15.278 7.02123 15.4067C6.89692 15.5354 6.79917 15.6873 6.73356 15.8538C6.66795 16.0203 6.63578 16.1981 6.63888 16.377C6.64197 16.5559 6.68027 16.7324 6.7516 16.8965C6.82292 17.0606 6.92587 17.2091 7.05457 17.3334L12.1746 22.4534C12.2985 22.5784 12.446 22.6776 12.6085 22.7452C12.7709 22.8129 12.9452 22.8478 13.1212 22.8478C13.2973 22.8478 13.4715 22.8129 13.634 22.7452C13.7965 22.6776 13.944 22.5784 14.0679 22.4534L24.9479 11.5734C25.0832 11.4485 25.1913 11.297 25.2651 11.1283C25.339 10.9597 25.3771 10.7775 25.3771 10.5934C25.3771 10.4093 25.339 10.2271 25.2651 10.0585C25.1913 9.88978 25.0832 9.73825 24.9479 9.61339Z" fill="#262B35"/>
</svg>
