<svg width="16" height="16" viewBox="0 0 16 16" fill="none" xmlns="http://www.w3.org/2000/svg">
<path d="M10.4743 8.47338C11.1279 7.95915 11.605 7.25399 11.8391 6.456C12.0733 5.65802 12.0529 4.80689 11.7808 4.02102C11.5087 3.23516 10.9985 2.55364 10.321 2.07128C9.64357 1.58892 8.83261 1.32971 8.00097 1.32971C7.16934 1.32971 6.35838 1.58892 5.68093 2.07128C5.00347 2.55364 4.4932 3.23516 4.22112 4.02102C3.94903 4.80689 3.92865 5.65802 4.16282 6.456C4.39698 7.25399 4.87405 7.95915 5.52764 8.47338C4.40769 8.92207 3.4305 9.66627 2.70024 10.6267C1.96997 11.587 1.51402 12.7276 1.38097 13.9267C1.37134 14.0143 1.37905 14.1028 1.40366 14.1874C1.42826 14.272 1.46929 14.3509 1.52438 14.4196C1.63565 14.5584 1.7975 14.6473 1.97431 14.6667C2.15112 14.6862 2.32841 14.6346 2.46719 14.5233C2.60597 14.412 2.69486 14.2502 2.71431 14.0734C2.8607 12.7702 3.4821 11.5666 4.45979 10.6926C5.43748 9.81856 6.70291 9.33539 8.01431 9.33539C9.32571 9.33539 10.5911 9.81856 11.5688 10.6926C12.5465 11.5666 13.1679 12.7702 13.3143 14.0734C13.3324 14.2372 13.4106 14.3885 13.5337 14.4981C13.6568 14.6076 13.8162 14.6677 13.981 14.6667H14.0543C14.2291 14.6466 14.3888 14.5582 14.4987 14.4209C14.6086 14.2835 14.6597 14.1083 14.641 13.9334C14.5073 12.7308 14.0489 11.5874 13.3149 10.6255C12.5809 9.66366 11.5989 8.91969 10.4743 8.47338ZM8.00097 8.00004C7.47356 8.00004 6.95799 7.84364 6.51945 7.55063C6.08092 7.25761 5.73913 6.84113 5.5373 6.35387C5.33546 5.8666 5.28265 5.33042 5.38555 4.81313C5.48844 4.29585 5.74242 3.8207 6.11536 3.44776C6.4883 3.07482 6.96345 2.82084 7.48073 2.71795C7.99802 2.61505 8.53419 2.66786 9.02146 2.8697C9.50873 3.07153 9.92521 3.41332 10.2182 3.85186C10.5112 4.29039 10.6676 4.80596 10.6676 5.33338C10.6676 6.04062 10.3867 6.7189 9.88659 7.21899C9.3865 7.71909 8.70822 8.00004 8.00097 8.00004Z" fill="#9EA8BA"/>
</svg>
