<svg width="988" height="220" viewBox="0 0 988 220" fill="none" xmlns="http://www.w3.org/2000/svg">
<g filter="url(#filter0_d_102_34696)">
<rect x="10" y="5" width="968" height="200" rx="6" fill="white"/>
</g>
<rect x="26" y="21" width="80" height="80" rx="6" fill="#E0ECFF"/>
<rect x="114" y="21" width="80" height="80" rx="6" fill="#E0ECFF"/>
<rect x="114" y="109" width="80" height="80" rx="6" fill="#E0ECFF"/>
<rect x="26" y="109" width="80" height="80" rx="6" fill="#E0ECFF"/>
<rect x="410" y="21" width="80" height="110" rx="6" fill="#E0ECFF"/>
<rect x="498" y="21" width="80" height="50" rx="6" fill="#E0ECFF"/>
<rect x="498" y="79" width="80" height="110" rx="6" fill="#E0ECFF"/>
<rect x="410" y="139" width="80" height="50" rx="6" fill="#E0ECFF"/>
<rect x="602" y="21" width="80" height="168" rx="6" fill="#E0ECFF"/>
<rect x="690" y="21" width="80" height="50" rx="6" fill="#E0ECFF"/>
<rect x="690" y="139" width="80" height="50" rx="6" fill="#E0ECFF"/>
<rect x="690" y="79" width="80" height="52" rx="6" fill="#E0ECFF"/>
<rect x="882" y="21" width="80" height="168" rx="6" fill="#E0ECFF"/>
<rect x="794" y="21" width="80" height="50" rx="6" fill="#E0ECFF"/>
<rect x="794" y="139" width="80" height="50" rx="6" fill="#E0ECFF"/>
<rect x="794" y="79" width="80" height="52" rx="6" fill="#E0ECFF"/>
<rect x="218" y="21" width="110" height="80" rx="6" fill="#E0ECFF"/>
<rect x="336" y="21" width="50" height="80" rx="6" fill="#E0ECFF"/>
<rect x="276" y="109" width="110" height="80" rx="6" fill="#E0ECFF"/>
<rect x="218" y="109" width="50" height="80" rx="6" fill="#E0ECFF"/>
<defs>
<filter id="filter0_d_102_34696" x="0" y="0" width="988" height="220" filterUnits="userSpaceOnUse" color-interpolation-filters="sRGB">
<feFlood flood-opacity="0" result="BackgroundImageFix"/>
<feColorMatrix in="SourceAlpha" type="matrix" values="0 0 0 0 0 0 0 0 0 0 0 0 0 0 0 0 0 0 127 0" result="hardAlpha"/>
<feOffset dy="5"/>
<feGaussianBlur stdDeviation="5"/>
<feComposite in2="hardAlpha" operator="out"/>
<feColorMatrix type="matrix" values="0 0 0 0 0.275 0 0 0 0 0.275 0 0 0 0 0.275 0 0 0 0.05 0"/>
<feBlend mode="normal" in2="BackgroundImageFix" result="effect1_dropShadow_102_34696"/>
<feBlend mode="normal" in="SourceGraphic" in2="effect1_dropShadow_102_34696" result="shape"/>
</filter>
</defs>
</svg>
