<svg width="20" height="20" viewBox="0 0 20 20" fill="none" xmlns="http://www.w3.org/2000/svg">
<path d="M18.1134 3.12588L16.0968 1.10925C16.0194 1.03185 15.9275 0.970453 15.8265 0.928563C15.7254 0.886673 15.617 0.865112 15.5076 0.865112C15.3981 0.865112 15.2898 0.886673 15.1887 0.928563C15.0876 0.970453 14.9957 1.03185 14.9184 1.10925L11.1016 4.92598C10.9454 5.08223 10.8575 5.29416 10.8575 5.51515V7.53178C10.8575 7.75279 10.9453 7.96475 11.1016 8.12103C11.2578 8.27731 11.4698 8.36511 11.6908 8.36512H13.7078C13.9288 8.36506 14.1408 8.27723 14.297 8.12095L18.1134 4.30421C18.1908 4.22685 18.2521 4.135 18.294 4.03391C18.3359 3.93282 18.3575 3.82447 18.3575 3.71504C18.3575 3.60562 18.3359 3.49726 18.294 3.39617C18.2521 3.29508 18.1908 3.20323 18.1134 3.12588ZM13.3628 6.69845H12.5242V5.86023L15.5076 2.87683L16.3458 3.71504L13.3628 6.69845ZM15.8327 9.16671C15.6117 9.16671 15.3997 9.25451 15.2434 9.41079C15.0871 9.56707 14.9993 9.77903 14.9993 10V11.993L13.7656 10.7593C13.3312 10.3258 12.7426 10.0823 12.1289 10.0823C11.5151 10.0823 10.9265 10.3258 10.4921 10.7593L9.91044 11.341L7.83871 9.26921C7.40482 8.83597 6.81673 8.59263 6.20357 8.59263C5.59042 8.59263 5.00233 8.83597 4.56844 9.26921L3.33268 10.505V5.83338C3.33297 5.61245 3.42086 5.40065 3.57708 5.24444C3.73329 5.08822 3.94509 5.00033 4.16602 5.00004H9.16602C9.38703 5.00004 9.59899 4.91224 9.75527 4.75596C9.91155 4.59968 9.99935 4.38772 9.99935 4.16671C9.99935 3.94569 9.91155 3.73373 9.75527 3.57745C9.59899 3.42117 9.38703 3.33338 9.16602 3.33338H4.16602C3.5032 3.3341 2.86773 3.59772 2.39905 4.06641C1.93036 4.53509 1.66674 5.17056 1.66602 5.83338V15.8334C1.66674 16.4962 1.93036 17.1317 2.39905 17.6003C2.86773 18.069 3.5032 18.3327 4.16602 18.3334H14.166C14.8288 18.3327 15.4643 18.069 15.933 17.6003C16.4017 17.1317 16.6653 16.4962 16.666 15.8334V10C16.666 9.77903 16.5782 9.56707 16.4219 9.41079C16.2657 9.25451 16.0537 9.16671 15.8327 9.16671ZM4.16602 16.6667C3.94509 16.6664 3.73329 16.5785 3.57708 16.4223C3.42086 16.2661 3.33297 16.0543 3.33268 15.8334V12.8618L5.74685 10.4476C5.87043 10.3312 6.03381 10.2663 6.2036 10.2663C6.37338 10.2663 6.53676 10.3312 6.66034 10.4476L9.30034 13.0869C9.30742 13.0945 9.31001 13.105 9.31738 13.1124L12.872 16.6667H4.16602ZM14.9993 15.8334C14.9952 15.994 14.9434 16.1498 14.8504 16.2809L11.0888 12.5194L11.6705 11.9377C11.7923 11.8165 11.9571 11.7485 12.1289 11.7485C12.3007 11.7485 12.4655 11.8165 12.5872 11.9377L14.9993 14.3498V15.8334Z" fill="white"/>
</svg>
