<svg width="26" height="26" viewBox="0 0 26 26" fill="none" xmlns="http://www.w3.org/2000/svg">
<path d="M13.7698 12.2309C13.6668 12.1322 13.5453 12.0549 13.4123 12.0034C13.1486 11.895 12.8527 11.895 12.589 12.0034C12.456 12.0549 12.3345 12.1322 12.2315 12.2309L10.0648 14.3975C9.86082 14.6015 9.74622 14.8782 9.74622 15.1667C9.74622 15.4552 9.86082 15.7319 10.0648 15.9359C10.2688 16.1398 10.5455 16.2545 10.834 16.2545C11.1225 16.2545 11.3992 16.1398 11.6032 15.9359L11.9173 15.6109V18.4167C11.9173 18.704 12.0315 18.9796 12.2346 19.1827C12.4378 19.3859 12.7133 19.5 13.0007 19.5C13.288 19.5 13.5635 19.3859 13.7667 19.1827C13.9698 18.9796 14.084 18.704 14.084 18.4167V15.6109L14.3982 15.9359C14.4989 16.0374 14.6187 16.118 14.7507 16.173C14.8827 16.228 15.0243 16.2563 15.1673 16.2563C15.3103 16.2563 15.4519 16.228 15.5839 16.173C15.716 16.118 15.8358 16.0374 15.9365 15.9359C16.038 15.8351 16.1186 15.7153 16.1736 15.5833C16.2286 15.4513 16.2569 15.3097 16.2569 15.1667C16.2569 15.0237 16.2286 14.8821 16.1736 14.7501C16.1186 14.618 16.038 14.4982 15.9365 14.3975L13.7698 12.2309ZM21.6673 9.68502C21.656 9.5855 21.6342 9.48745 21.6023 9.39252V9.29502C21.5502 9.18363 21.4807 9.08124 21.3965 8.99169L14.8965 2.49169C14.8069 2.40742 14.7045 2.33794 14.5932 2.28585H14.4848C14.3795 2.22952 14.2663 2.18935 14.149 2.16669H7.58398C6.72203 2.16669 5.89538 2.5091 5.28589 3.11859C4.67639 3.72808 4.33398 4.55473 4.33398 5.41669V20.5834C4.33398 21.4453 4.67639 22.272 5.28589 22.8815C5.89538 23.4909 6.72203 23.8334 7.58398 23.8334H18.4173C19.2793 23.8334 20.1059 23.4909 20.7154 22.8815C21.3249 22.272 21.6673 21.4453 21.6673 20.5834V9.75002C21.6673 9.75002 21.6673 9.75002 21.6673 9.68502ZM15.1673 5.86085L17.9732 8.66669H16.2507C15.9633 8.66669 15.6878 8.55255 15.4846 8.34939C15.2815 8.14622 15.1673 7.87067 15.1673 7.58335V5.86085ZM19.5007 20.5834C19.5007 20.8707 19.3865 21.1462 19.1833 21.3494C18.9802 21.5526 18.7046 21.6667 18.4173 21.6667H7.58398C7.29667 21.6667 7.02112 21.5526 6.81795 21.3494C6.61479 21.1462 6.50065 20.8707 6.50065 20.5834V5.41669C6.50065 5.12937 6.61479 4.85382 6.81795 4.65066C7.02112 4.44749 7.29667 4.33335 7.58398 4.33335H13.0007V7.58335C13.0007 8.44531 13.3431 9.27196 13.9526 9.88145C14.562 10.4909 15.3887 10.8334 16.2507 10.8334H19.5007V20.5834Z" fill="#0061FF"/>
</svg>
