<svg width="16" height="16" viewBox="0 0 16 16" fill="none" xmlns="http://www.w3.org/2000/svg">
<path d="M12.666 7.33329H8.66602V3.33329C8.66602 2.93329 8.39935 2.66663 7.99935 2.66663C7.59935 2.66663 7.33268 2.93329 7.33268 3.33329V7.33329H3.33268C2.93268 7.33329 2.66602 7.59996 2.66602 7.99996C2.66602 8.39996 2.93268 8.66663 3.33268 8.66663H7.33268V12.6666C7.33268 13.0666 7.59935 13.3333 7.99935 13.3333C8.39935 13.3333 8.66602 13.0666 8.66602 12.6666V8.66663H12.666C13.066 8.66663 13.3327 8.39996 13.3327 7.99996C13.3327 7.59996 13.066 7.33329 12.666 7.33329Z" fill="#9EA8BA"/>
</svg>
