<svg width="80" height="80" viewBox="0 0 80 80" fill="none" xmlns="http://www.w3.org/2000/svg">
<path d="M75.2 40.8335C75.2 38.2335 74.9667 35.7335 74.5333 33.3335H40V47.5168H59.7333C58.8833 52.1002 56.3 55.9835 52.4167 58.5835V67.7835H64.2667C71.2 61.4002 75.2 52.0002 75.2 40.8335Z" fill="#4285F4"/>
<path d="M39.9991 76.6668C49.8991 76.6668 58.1991 73.3835 64.2658 67.7835L52.4158 58.5835C49.1324 60.7835 44.9324 62.0835 39.9991 62.0835C30.4491 62.0835 22.3658 55.6335 19.4824 46.9668H7.23242V56.4668C13.2658 68.4501 25.6658 76.6668 39.9991 76.6668Z" fill="#34A853"/>
<path d="M19.484 46.9665C18.7507 44.7665 18.334 42.4165 18.334 39.9999C18.334 37.5832 18.7507 35.2332 19.484 33.0332V23.5332H7.23399C4.66732 28.6427 3.33172 34.2819 3.33399 39.9999C3.33399 45.9165 4.75065 51.5165 7.23399 56.4665L19.484 46.9665Z" fill="#FBBC05"/>
<path d="M39.9991 17.9168C45.3824 17.9168 50.2158 19.7668 54.0158 23.4002L64.5324 12.8835C58.1824 6.96683 49.8824 3.3335 39.9991 3.3335C25.6658 3.3335 13.2658 11.5502 7.23242 23.5335L19.4824 33.0335C22.3658 24.3668 30.4491 17.9168 39.9991 17.9168Z" fill="#EA4335"/>
</svg>
