<svg width="163" height="36" viewBox="0 0 163 36" fill="none" xmlns="http://www.w3.org/2000/svg">
<path d="M51.0693 10.9535C55.0057 10.9535 58.2075 14.1142 58.2075 18.0002C58.2075 21.8861 55.0057 25.0468 51.0693 25.0468H46.1744V10.9535H51.0693ZM51.0693 6.91943H44.3339C43.1069 6.91943 42.0879 7.92275 42.0879 9.13662V26.8663C42.0879 28.0776 43.1043 29.0835 44.3339 29.0835H51.0693C57.2781 29.0835 62.2941 24.1319 62.2941 18.0028C62.2941 11.8737 57.2781 6.91943 51.0693 6.91943Z" fill="black"/>
<path d="M82.0028 27.0689C82.0028 28.171 81.0786 29.0833 79.9621 29.0833C78.8457 29.0833 77.9215 28.171 77.9215 27.0689V21.0256C77.9215 18.7902 76.1047 16.9967 73.8403 16.9967C71.5758 16.9967 69.759 18.7902 69.759 21.0256V27.0689C69.759 28.171 68.8348 29.0833 67.7184 29.0833C66.6019 29.0833 65.6777 28.171 65.6777 27.0689V8.93632C65.6777 7.83422 66.6019 6.92188 67.7184 6.92188C68.8348 6.92188 69.759 7.83422 69.759 8.93632V14.0673C70.9386 13.3759 72.342 12.9652 73.8403 12.9652C78.3349 12.9652 82.0028 16.586 82.0028 21.023V27.0689Z" fill="black"/>
<path d="M90.0393 27.0689C90.0393 28.171 89.1151 29.0833 87.9986 29.0833C86.8822 29.0833 85.958 28.171 85.958 27.0689V14.9822C85.958 13.8801 86.8822 12.9678 87.9986 12.9678C89.1151 12.9678 90.0393 13.8801 90.0393 14.9822V27.0689Z" fill="black"/>
<path d="M116.952 27.0689C116.952 28.171 116.028 29.0833 114.911 29.0833C114.369 29.0833 113.858 28.8624 113.476 28.4855L105.727 20.8358L97.9805 28.4855C97.5987 28.8624 97.0879 29.0833 96.5455 29.0833C95.4291 29.0833 94.5049 28.171 94.5049 27.0689V8.93632C94.5049 7.83422 95.4291 6.92188 96.5455 6.92188C97.6619 6.92188 98.5861 7.83422 98.5861 8.93632V22.2212L104.295 16.586C104.676 16.1779 105.219 15.9882 105.73 15.9882C106.24 15.9882 106.783 16.1779 107.165 16.586L112.873 22.2212V8.93632C112.873 7.83422 113.797 6.92188 114.914 6.92188C116.03 6.92188 116.954 7.83422 116.954 8.93632V27.0689H116.952Z" fill="black"/>
<path d="M125.497 27.0689C125.497 28.1709 124.573 29.0833 123.457 29.0833C122.34 29.0833 121.416 28.1709 121.416 27.0689V14.9822C121.416 13.8801 122.34 12.9678 123.457 12.9678C124.573 12.9678 125.497 13.8801 125.497 14.9822V27.0689Z" fill="black"/>
<path d="M138.637 25.0547C139.211 25.0547 139.656 24.6155 139.656 24.0462C139.656 23.477 139.211 23.0377 138.637 23.0377H134.556C131.749 23.0377 129.453 20.7711 129.453 18.0003C129.453 15.2295 131.749 12.9629 134.556 12.9629H140.678C141.794 12.9629 142.719 13.8752 142.719 14.9773C142.719 16.0794 141.794 16.9918 140.678 16.9918H134.556C133.982 16.9918 133.534 17.431 133.534 18.0003C133.534 18.5695 133.979 19.0088 134.556 19.0088H138.637C141.444 19.0088 143.738 21.2754 143.738 24.0462C143.738 26.817 141.441 29.0836 138.637 29.0836H131.494C130.377 29.0836 129.453 28.1713 129.453 27.0692C129.453 25.9671 130.377 25.0547 131.494 25.0547H138.637Z" fill="black"/>
<path d="M154.835 29.0833C150.338 29.0833 146.673 25.4625 146.673 21.0255C146.673 16.5886 150.338 12.9678 154.835 12.9678C159.33 12.9678 162.998 16.5886 162.998 21.0255C162.998 22.1276 162.074 23.04 160.957 23.04H151.294C151.997 24.2668 153.303 25.0544 154.833 25.0544H156.873C157.99 25.0544 158.914 25.9668 158.914 27.0689C158.914 28.1709 157.99 29.0833 156.873 29.0833H154.835ZM151.294 19.0085H158.372C157.671 17.8128 156.331 16.9941 154.833 16.9941C153.303 16.9941 151.997 17.8128 151.294 19.0085Z" fill="black"/>
<path d="M87.9982 11.455C89.2662 11.455 90.2942 10.4402 90.2942 9.18844C90.2942 7.93665 89.2662 6.92188 87.9982 6.92188C86.7301 6.92188 85.7021 7.93665 85.7021 9.18844C85.7021 10.4402 86.7301 11.455 87.9982 11.455Z" fill="url(#paint0_linear_102_27795)"/>
<path d="M123.458 11.455C124.726 11.455 125.754 10.4402 125.754 9.18844C125.754 7.93665 124.726 6.92188 123.458 6.92188C122.19 6.92188 121.162 7.93665 121.162 9.18844C121.162 10.4402 122.19 11.455 123.458 11.455Z" fill="url(#paint1_linear_102_27795)"/>
<path d="M25.4302 0H2.3408C1.04796 0 0 1.03451 0 2.31076V27.4926C0 28.4283 0.571376 29.2705 1.44555 29.6266C2.3171 29.9827 3.32557 29.7851 3.997 29.1249L15.2692 17.9974C16.1828 17.0955 16.1828 15.6321 15.2692 14.7301C14.3555 13.8282 12.8731 13.8282 11.9594 14.7301L4.6816 21.9145V4.62152H25.4328C28.9374 4.62152 31.7864 7.43653 31.7864 10.8936V25.1038C31.7864 28.5635 28.9348 31.3759 25.4328 31.3759H14.2686L21.5464 24.1915C22.4601 23.2895 22.4601 21.8261 21.5464 20.9242C20.6327 20.0222 19.1503 20.0222 18.2366 20.9242L6.96183 32.0543C6.29303 32.7145 6.09292 33.71 6.45365 34.573C6.81701 35.436 7.67013 36 8.6154 36H25.4275C31.5126 36 36.4627 31.1134 36.4627 25.1064V10.8962C36.468 4.88924 31.5178 0 25.4302 0Z" fill="url(#paint2_linear_102_27795)"/>
<path d="M25.3329 19.4998C26.6257 19.4998 27.6737 18.4653 27.6737 17.1891V10.9924C27.6737 9.71615 26.6257 8.68164 25.3329 8.68164H19.0556C17.7628 8.68164 16.7148 9.71615 16.7148 10.9924C16.7148 12.2686 17.7628 13.3032 19.0556 13.3032H22.9921V17.1891C22.9921 18.4653 24.04 19.4998 25.3329 19.4998Z" fill="url(#paint3_linear_102_27795)"/>
<defs>
<linearGradient id="paint0_linear_102_27795" x1="85.7028" y1="9.18753" x2="90.2937" y2="9.18753" gradientUnits="userSpaceOnUse">
<stop stop-color="#0068FF"/>
<stop offset="1" stop-color="#0000E1"/>
</linearGradient>
<linearGradient id="paint1_linear_102_27795" x1="121.163" y1="9.18753" x2="125.754" y2="9.18753" gradientUnits="userSpaceOnUse">
<stop stop-color="#FF9852"/>
<stop offset="0.2774" stop-color="#FF8A3A"/>
<stop offset="1" stop-color="#FF6700"/>
</linearGradient>
<linearGradient id="paint2_linear_102_27795" x1="22.8397" y1="10.9366" x2="3.49092" y2="30.537" gradientUnits="userSpaceOnUse">
<stop stop-color="#0068FF"/>
<stop offset="1" stop-color="#0000E1"/>
</linearGradient>
<linearGradient id="paint3_linear_102_27795" x1="27.4648" y1="8.88878" x2="20.4058" y2="16.0396" gradientUnits="userSpaceOnUse">
<stop stop-color="#FF9852"/>
<stop offset="0.2774" stop-color="#FF8A3A"/>
<stop offset="1" stop-color="#FF6700"/>
</linearGradient>
</defs>
</svg>
