<svg width="20" height="20" viewBox="0 0 20 20" fill="none" xmlns="http://www.w3.org/2000/svg">
<path d="M15.8337 1.6665H4.16699C3.50395 1.6665 2.86807 1.9299 2.39923 2.39874C1.93038 2.86758 1.66699 3.50346 1.66699 4.1665V5.1415C1.66687 5.48562 1.7378 5.82606 1.87533 6.1415V6.1915C1.99306 6.45898 2.15982 6.70205 2.36699 6.90817L7.50033 12.0082V17.4998C7.50004 17.6415 7.53586 17.7808 7.60439 17.9048C7.67291 18.0287 7.7719 18.1331 7.89199 18.2082C8.02461 18.2904 8.17764 18.3337 8.33366 18.3332C8.46411 18.3324 8.59256 18.301 8.70866 18.2415L12.042 16.5748C12.1794 16.5056 12.295 16.3996 12.3759 16.2687C12.4568 16.1378 12.4999 15.9871 12.5003 15.8332V12.0082L17.6003 6.90817C17.8075 6.70205 17.9743 6.45898 18.092 6.1915V6.1415C18.241 5.82853 18.3233 5.48799 18.3337 5.1415V4.1665C18.3337 3.50346 18.0703 2.86758 17.6014 2.39874C17.1326 1.9299 16.4967 1.6665 15.8337 1.6665ZM11.0753 11.0748C10.9981 11.1527 10.937 11.2451 10.8955 11.3466C10.854 11.4481 10.833 11.5568 10.8337 11.6665V15.3165L9.16699 16.1498V11.6665C9.16763 11.5568 9.14661 11.4481 9.10513 11.3466C9.06366 11.2451 9.00256 11.1527 8.92533 11.0748L4.50866 6.6665H15.492L11.0753 11.0748ZM16.667 4.99984H3.33366V4.1665C3.33366 3.94549 3.42146 3.73353 3.57774 3.57725C3.73402 3.42097 3.94598 3.33317 4.16699 3.33317H15.8337C16.0547 3.33317 16.2666 3.42097 16.4229 3.57725C16.5792 3.73353 16.667 3.94549 16.667 4.1665V4.99984Z" fill="#262B35"/>
</svg>
