<svg width="16" height="16" viewBox="0 0 16 16" fill="none" xmlns="http://www.w3.org/2000/svg">
<path d="M5.80732 5.13995L7.33398 3.60662V9.99995C7.33398 10.1768 7.40422 10.3463 7.52925 10.4714C7.65427 10.5964 7.82384 10.6666 8.00065 10.6666C8.17746 10.6666 8.34703 10.5964 8.47206 10.4714C8.59708 10.3463 8.66732 10.1768 8.66732 9.99995V3.60662L10.194 5.13995C10.256 5.20244 10.3297 5.25203 10.4109 5.28588C10.4922 5.31972 10.5793 5.33715 10.6673 5.33715C10.7553 5.33715 10.8425 5.31972 10.9237 5.28588C11.0049 5.25203 11.0787 5.20244 11.1407 5.13995C11.2031 5.07798 11.2527 5.00424 11.2866 4.923C11.3204 4.84176 11.3379 4.75463 11.3379 4.66662C11.3379 4.57861 11.3204 4.49147 11.2866 4.41023C11.2527 4.32899 11.2031 4.25526 11.1407 4.19328L8.47398 1.52662C8.41058 1.46592 8.33582 1.41835 8.25398 1.38662C8.09168 1.31994 7.90963 1.31994 7.74732 1.38662C7.66548 1.41835 7.59072 1.46592 7.52732 1.52662L4.86065 4.19328C4.79849 4.25544 4.74919 4.32924 4.71554 4.41045C4.6819 4.49167 4.66459 4.57871 4.66459 4.66662C4.66459 4.75452 4.6819 4.84157 4.71554 4.92278C4.74919 5.004 4.79849 5.07779 4.86065 5.13995C4.92281 5.20211 4.9966 5.25142 5.07782 5.28506C5.15903 5.3187 5.24608 5.33601 5.33398 5.33601C5.42189 5.33601 5.50894 5.3187 5.59015 5.28506C5.67137 5.25142 5.74516 5.20211 5.80732 5.13995ZM14.0007 7.99995C13.8238 7.99995 13.6543 8.07019 13.5292 8.19521C13.4042 8.32024 13.334 8.48981 13.334 8.66662V12.6666C13.334 12.8434 13.2637 13.013 13.1387 13.138C13.0137 13.263 12.8441 13.3333 12.6673 13.3333H3.33398C3.15717 13.3333 2.9876 13.263 2.86258 13.138C2.73756 13.013 2.66732 12.8434 2.66732 12.6666V8.66662C2.66732 8.48981 2.59708 8.32024 2.47206 8.19521C2.34703 8.07019 2.17746 7.99995 2.00065 7.99995C1.82384 7.99995 1.65427 8.07019 1.52925 8.19521C1.40422 8.32024 1.33398 8.48981 1.33398 8.66662V12.6666C1.33398 13.1971 1.5447 13.7058 1.91977 14.0808C2.29484 14.4559 2.80355 14.6666 3.33398 14.6666H12.6673C13.1978 14.6666 13.7065 14.4559 14.0815 14.0808C14.4566 13.7058 14.6673 13.1971 14.6673 12.6666V8.66662C14.6673 8.48981 14.5971 8.32024 14.4721 8.19521C14.347 8.07019 14.1775 7.99995 14.0007 7.99995Z" fill="#0061FF"/>
</svg>
