<svg width="20" height="20" viewBox="0 0 20 20" fill="none" xmlns="http://www.w3.org/2000/svg">
<path d="M12.7208 7.27917C11.8088 6.36718 10.3251 6.36718 9.41312 7.27917L2.71264 13.9796C2.42912 14.2632 2.42912 14.7225 2.71264 15.006L4.99401 17.2874C5.13578 17.4291 5.32148 17.5 5.50718 17.5C5.69289 17.5 5.87859 17.4291 6.02035 17.2874L12.7208 10.5869C13.6328 9.6749 13.6328 8.19115 12.7208 7.27917ZM5.50718 15.7479L4.25214 14.4928L8.71141 10.0336L9.96645 11.2886L5.50718 15.7479ZM11.6945 9.56055L10.9928 10.2623L9.73774 9.00722L10.4395 8.30551C10.7749 7.97095 11.359 7.97095 11.6945 8.30551C11.8618 8.47326 11.9544 8.69582 11.9544 8.93303C11.9544 9.17024 11.8618 9.3928 11.6945 9.56055ZM14.0179 6.70788C14.2036 6.70788 14.3893 6.637 14.5311 6.49524L15.6047 5.42166C15.8882 5.13814 15.8882 4.67884 15.6047 4.39532C15.3212 4.11181 14.8619 4.1118 14.5783 4.39532L13.5048 5.46891C13.2212 5.75243 13.2212 6.21173 13.5048 6.49524C13.6465 6.637 13.8322 6.70788 14.0179 6.70788ZM11.7555 4.74452V3.22581C11.7555 2.8251 11.4303 2.5 11.0296 2.5C10.6289 2.5 10.3038 2.8251 10.3038 3.22581V4.74452C10.3038 5.14523 10.6289 5.47032 11.0296 5.47032C11.4303 5.47032 11.7555 5.14523 11.7555 4.74452ZM8.04184 6.70788C8.22754 6.70788 8.41325 6.637 8.55501 6.49524C8.83853 6.21173 8.83853 5.75196 8.55501 5.46891L7.48094 4.39532C7.19743 4.1118 6.73813 4.1118 6.45461 4.39532C6.1711 4.67884 6.17109 5.13861 6.45461 5.42166L7.52867 6.49524C7.67043 6.637 7.85613 6.70788 8.04184 6.70788ZM14.5311 11.445C14.2476 11.1615 13.7883 11.1615 13.5048 11.445C13.2212 11.728 13.2212 12.1878 13.5048 12.4713L14.5783 13.5454C14.7201 13.6872 14.9058 13.758 15.0915 13.758C15.2772 13.758 15.4629 13.6872 15.6047 13.5454C15.8882 13.2624 15.8882 12.8026 15.6047 12.5191L14.5311 11.445ZM16.7742 8.24455H15.2555C14.8548 8.24455 14.5297 8.56965 14.5297 8.97036C14.5297 9.37106 14.8548 9.69616 15.2555 9.69616H16.7742C17.1749 9.69616 17.5 9.37106 17.5 8.97036C17.5 8.56965 17.1749 8.24455 16.7742 8.24455Z" fill="white"/>
</svg>
